<svg xmlns="http://www.w3.org/2000/svg" width="496.163" height="322.176" viewBox="0 0 496.163 322.176"><defs><style>.a,.k{fill:#1010af;}.a{opacity:0.5;}.b,.e{fill:#6c63ff;}.b,.f,.g{opacity:0.1;}.c{opacity:0.2;}.d{fill:#3f3d56;}.h,.i{fill:#fff;}.i{opacity:0.63;}.j{fill:#f9c600;}.l{fill:none;stroke:#1010af;stroke-miterlimit:10;stroke-width:3px;}.m{fill:#ffda64;}.n{fill:#eab200;}</style></defs><g transform="translate(-277.096 -150.394)"><path class="a" d="M503.228,500.44c124.889,0,226.132,3.521,226.132,7.867s-101.243,12.628-226.132,12.628S277.1,512.651,277.1,508.307,378.339,500.44,503.228,500.44Z" transform="translate(0 -48.365)"/><path class="b" d="M622.541,467.426c53.991,5.7,95.065-16.105,104.564-55.5,29.923-124.087-73.251-73.48-45.83-140.8,5.37-13.183,14.992-24.457,20.087-37.6s6.94-27.962,1.044-40.706c-5.854-12.639-18.542-21.617-32.067-27.642C642.867,152.9,611.249,150.8,580.494,150.4c-68.057-.925-61.591,61.031-144.44,45.608C259.4,175.96,315.529,260.773,327.01,285.638c9.677,16.913,1.625,29.635-5.555,43.108-15.393,28.907-42.538,55.081-42.133,87.046.273,21.931,16.169,35.474,38.051,44.56C340.312,469.878,594.022,463.305,622.541,467.426Z" transform="translate(-0.307 0)"/><g class="c" transform="translate(613.847 316.421)"><ellipse class="d" cx="4.862" cy="6.359" rx="4.862" ry="6.359" transform="translate(18.545 131.213)"/><path class="d" d="M690.376,469.448a7.675,7.675,0,0,1-1.011-3.885c0-3.514,2.177-6.365,4.856-6.365s4.862,2.857,4.862,6.365a7.613,7.613,0,0,1-1.017,3.885,7.941,7.941,0,0,1,0,7.775,7.942,7.942,0,0,1,0,7.776,7.61,7.61,0,0,1,1.017,3.884c0,3.514-2.176,6.365-4.862,6.365s-4.856-2.856-4.856-6.365A7.669,7.669,0,0,1,690.376,485a8,8,0,0,1,0-7.776A8,8,0,0,1,690.376,469.448Z" transform="translate(-670.808 -359.088)"/><ellipse class="d" cx="4.862" cy="6.359" rx="4.862" ry="6.359" transform="translate(18.545 92.34)"/><ellipse class="d" cx="4.862" cy="6.359" rx="4.862" ry="6.359" transform="translate(18.545 84.564)"/><path class="e" d="M709.432,380.754a22.229,22.229,0,0,0,1.811-2.662l-12.769-2.1,13.809.1a23.334,23.334,0,0,0,.446-18.448L694.2,367.265l17.088-12.57a23.281,23.281,0,1,0-38.445,26.053,23.476,23.476,0,0,0-2.656,4.245l16.568,8.61-17.636-5.924a23.287,23.287,0,0,0,3.753,21.859,23.276,23.276,0,1,0,36.565,0,23.275,23.275,0,0,0,0-28.784Z" transform="translate(-667.833 -343.038)"/><path class="f" d="M667.864,403.444a23.176,23.176,0,0,0,4.982,14.392,23.276,23.276,0,1,0,36.565,0C712.542,413.877,667.864,400.834,667.864,403.444Z" transform="translate(-667.836 -351.337)"/></g><g class="g" transform="translate(339.244 280.382)"><ellipse class="d" cx="6.079" cy="7.951" rx="6.079" ry="7.951" transform="translate(23.189 164.068)"/><path class="d" d="M377.394,459.283a9.6,9.6,0,0,1-1.264-4.857c0-4.394,2.722-7.958,6.072-7.958s6.079,3.571,6.079,7.958a9.518,9.518,0,0,1-1.272,4.857,9.93,9.93,0,0,1,0,9.723,9.929,9.929,0,0,1,0,9.722,9.521,9.521,0,0,1,1.272,4.858c0,4.394-2.722,7.958-6.079,7.958s-6.072-3.572-6.072-7.958a9.6,9.6,0,0,1,1.264-4.858,10,10,0,0,1,0-9.722A10,10,0,0,1,377.394,459.283Z" transform="translate(-352.927 -321.29)"/><ellipse class="d" cx="6.079" cy="7.951" rx="6.079" ry="7.951" transform="translate(23.189 115.461)"/><ellipse class="d" cx="6.079" cy="7.951" rx="6.079" ry="7.951" transform="translate(23.189 105.739)"/><path class="e" d="M401.221,348.381a27.81,27.81,0,0,0,2.265-3.329L387.52,342.43l17.266.128a29.174,29.174,0,0,0,.558-23.067l-23.168,12.023L403.543,315.8a29.111,29.111,0,1,0-48.07,32.576,29.362,29.362,0,0,0-3.322,5.308l20.718,10.765-22.053-7.407a29.12,29.12,0,0,0,4.694,27.332,29.1,29.1,0,1,0,45.72,0,29.1,29.1,0,0,0,0-35.991Z" transform="translate(-349.207 -301.222)"/><path class="f" d="M349.246,376.752a28.984,28.984,0,0,0,6.23,18,29.1,29.1,0,1,0,45.72,0C405.111,389.8,349.246,373.488,349.246,376.752Z" transform="translate(-349.21 -311.598)"/></g><circle class="b" cx="9.671" cy="9.671" r="9.671" transform="translate(753.917 390.801)"/><circle class="b" cx="16.208" cy="16.208" r="16.208" transform="translate(699.572 256.487)"/><circle class="b" cx="15.518" cy="15.518" r="15.518" transform="translate(402.262 152.646)"/><circle class="b" cx="9.671" cy="9.671" r="9.671" transform="translate(744.246 201.642)"/><g transform="translate(434.693 235.143)"><path class="h" d="M551.764,252.064,480.931,454.181c-.4,1.129.671,2.253,2.284,2.4l84.068,7.879c1.676.158,3.144-.808,3.067-2.018l-13.234-210C556.975,250.209,552.527,249.889,551.764,252.064Z" transform="translate(-462.845 -248.986)"/><path class="i" d="M542.3,250.256,460.066,462.978c-.459,1.2.6,2.431,2.273,2.627L553.18,466.7c1.737.2,3.3-.8,3.276-2.1l-8.6-213.816C547.8,248.376,543.19,247.938,542.3,250.256Z" transform="translate(-459.958 -248.729)"/><path class="i" d="M563.88,256.61l18.844,207.536c.105,1.16-1.189,2.138-2.768,2.093l-82.39-2.369c-1.643-.047-2.815-1.175-2.448-2.357l63.546-205.166C559.341,254.156,563.677,254.376,563.88,256.61Z" transform="translate(-464.807 -249.57)"/></g><path class="h" d="M710.708,318.839l-3.476.38a.625.625,0,0,0-.483.326l-1.656,3.079a.627.627,0,0,1-1.122-.04l-1.436-3.188a.626.626,0,0,0-.459-.358l-3.44-.624a.626.626,0,0,1-.309-1.079l2.588-2.351a.627.627,0,0,0,.2-.546l-.47-3.465a.626.626,0,0,1,.931-.627l3.035,1.735a.629.629,0,0,0,.582.021l3.15-1.518a.625.625,0,0,1,.883.691l-.712,3.423a.624.624,0,0,0,.161.559l2.416,2.527A.626.626,0,0,1,710.708,318.839Z" transform="translate(-58.172 -22.088)"/><path class="h" d="M742.843,422.607l-3.475.381a.624.624,0,0,0-.483.326l-1.657,3.078a.626.626,0,0,1-1.121-.039l-1.436-3.188a.623.623,0,0,0-.458-.359l-3.44-.624a.626.626,0,0,1-.309-1.079l2.587-2.351a.626.626,0,0,0,.2-.547l-.47-3.465a.625.625,0,0,1,.93-.627l3.036,1.735a.625.625,0,0,0,.582.02l3.15-1.517a.625.625,0,0,1,.883.691l-.712,3.423a.627.627,0,0,0,.16.559l2.417,2.527A.625.625,0,0,1,742.843,422.607Z" transform="translate(-62.612 -36.426)"/><path class="h" d="M435.272,307.626l-1.849.2a.333.333,0,0,0-.257.173l-.882,1.639a.333.333,0,0,1-.6-.022l-.764-1.7a.336.336,0,0,0-.245-.191l-1.831-.332a.333.333,0,0,1-.165-.574l1.377-1.251a.333.333,0,0,0,.106-.291l-.25-1.843a.334.334,0,0,1,.5-.334l1.615.924a.332.332,0,0,0,.31.01l1.676-.807a.333.333,0,0,1,.471.367l-.379,1.822a.333.333,0,0,0,.085.3l1.286,1.344A.333.333,0,0,1,435.272,307.626Z" transform="translate(-20.929 -21.093)"/><path class="h" d="M656.5,413.086l-1.849.2a.33.33,0,0,0-.257.173l-.882,1.638a.334.334,0,0,1-.6-.021l-.764-1.7a.331.331,0,0,0-.244-.19l-1.831-.333a.333.333,0,0,1-.165-.574l1.377-1.251a.333.333,0,0,0,.106-.291l-.25-1.843a.333.333,0,0,1,.5-.334l1.615.923a.335.335,0,0,0,.31.011l1.676-.807a.333.333,0,0,1,.471.367l-.379,1.822a.333.333,0,0,0,.085.3l1.286,1.344A.333.333,0,0,1,656.5,413.086Z" transform="translate(-51.495 -35.665)"/><path class="h" d="M398.148,289.01l-5.548.608a1,1,0,0,0-.77.52l-2.644,4.914a1,1,0,0,1-1.79-.063L385.1,289.9a1,1,0,0,0-.733-.572l-5.491-1a1,1,0,0,1-.493-1.721l4.131-3.752a1,1,0,0,0,.318-.873l-.75-5.53a1,1,0,0,1,1.485-1l4.845,2.769a1,1,0,0,0,.929.032l5.028-2.421a1,1,0,0,1,1.411,1.1l-1.137,5.464a1,1,0,0,0,.256.894l3.857,4.033A1,1,0,0,1,398.148,289.01Z" transform="translate(-13.95 -17.261)"/><rect class="e" width="4.57" height="1.306" transform="matrix(0.726, -0.688, 0.688, 0.726, 490.223, 269.019)"/><rect class="e" width="4.57" height="1.306" transform="matrix(0.997, -0.082, 0.082, 0.997, 509.582, 275.05)"/><rect class="e" width="4.57" height="1.306" transform="translate(519.402 270.092) rotate(24.97)"/><rect class="e" width="1.224" height="1.224" transform="matrix(0.971, -0.239, 0.239, 0.971, 521.198, 282.65)"/><rect class="e" width="4.57" height="1.306" transform="translate(517.405 292.114) rotate(-56.225)"/><rect class="j" width="4.57" height="1.306" transform="translate(535.92 287.025) rotate(24.97)"/><rect class="e" width="4.57" height="1.306" transform="matrix(0.971, -0.239, 0.239, 0.971, 445.357, 335.182)"/><rect class="e" width="4.57" height="1.306" transform="translate(483.99 297.376) rotate(-22.214)"/><rect class="e" width="2.861" height="1.306" transform="translate(497.04 290.593) rotate(24.97)"/><rect class="e" width="1.963" height="1.963" transform="matrix(0.971, -0.239, 0.239, 0.971, 505.33, 291.435)"/><rect class="e" width="4.57" height="1.306" transform="translate(507.569 300.777) rotate(24.97)"/><rect class="k" width="4.57" height="1.306" transform="matrix(0.902, -0.432, 0.432, 0.902, 521.597, 298.376)"/><rect class="j" width="4.57" height="1.306" transform="translate(531.024 304.238) rotate(36.586)"/><rect class="e" width="2.501" height="1.48" transform="translate(525.42 311.872) rotate(75.385)"/><rect class="e" width="4.57" height="1.306" transform="translate(537.034 318.372) rotate(75.385)"/><rect class="e" width="4.57" height="1.306" transform="translate(559.822 289.989) rotate(4.739)"/><rect class="e" width="2.501" height="1.48" transform="translate(559.09 299.432) rotate(43.538)"/><rect class="k" width="4.57" height="1.306" transform="translate(572.385 298.825) rotate(43.538)"/><rect class="e" width="4.57" height="1.306" transform="matrix(-0.733, 0.68, -0.68, -0.733, 557.548, 325.211)"/><rect class="j" width="2.048" height="2.048" transform="matrix(-0.733, 0.68, -0.68, -0.733, 557.317, 340.951)"/><rect class="e" width="4.57" height="1.306" transform="translate(540.563 337.387) rotate(-172.46)"/><rect class="e" width="2.674" height="1.306" transform="matrix(-0.055, 0.998, -0.998, -0.055, 502.981, 321.204)"/><rect class="j" width="4.57" height="1.306" transform="translate(493.393 320.618) rotate(131.947)"/><rect class="j" width="4.57" height="1.306" transform="translate(487.181 334.489) rotate(69.215)"/><circle class="e" cx="0.685" cy="0.685" r="0.685" transform="translate(490.829 320.967)"/><circle class="e" cx="0.685" cy="0.685" r="0.685" transform="translate(510.816 311.07)"/><rect class="e" width="4.57" height="1.306" transform="matrix(0.576, 0.817, -0.817, 0.576, 471.543, 356.158)"/><circle class="e" cx="0.685" cy="0.685" r="0.685" transform="translate(470.566 339.812)"/><rect class="j" width="4.57" height="1.306" transform="matrix(-0.985, -0.17, 0.17, -0.985, 469.6, 321.299)"/><rect class="k" width="1.963" height="1.963" transform="translate(448.358 315.019) rotate(-161.804)"/><rect class="k" width="4.57" height="1.306" transform="matrix(-0.545, -0.839, 0.839, -0.545, 451.413, 305.912)"/><rect class="j" width="4.57" height="1.306" transform="translate(466.994 266.027) rotate(98.655)"/><rect class="e" width="2.674" height="1.306" transform="matrix(0.576, -0.817, 0.817, 0.576, 466.135, 291.027)"/><rect class="e" width="4.57" height="1.306" transform="translate(473.954 296.608) rotate(-16.027)"/><rect class="e" width="4.57" height="1.306" transform="translate(480.117 284.67) rotate(-16.027)"/><circle class="k" cx="0.685" cy="0.685" r="0.685" transform="translate(466.999 278.603)"/><circle class="e" cx="0.685" cy="0.685" r="0.685" transform="translate(453.216 293.834)"/><circle class="e" cx="0.685" cy="0.685" r="0.685" transform="translate(502.583 290.811)"/><circle class="j" cx="0.685" cy="0.685" r="0.685" transform="translate(505.197 223.775)"/><rect class="e" width="4.57" height="1.306" transform="translate(504.463 243.963) rotate(-7.103)"/><circle class="e" cx="0.685" cy="0.685" r="0.685" transform="translate(492.33 236.032)"/><circle class="e" cx="0.685" cy="0.685" r="0.685" transform="translate(519.132 224.059)"/><rect class="k" width="2.674" height="1.306" transform="translate(528.232 247.463) rotate(-123.021)"/><rect class="e" width="4.57" height="1.306" transform="matrix(0.101, -0.995, 0.995, 0.101, 536.318, 242.278)"/><rect class="e" width="4.57" height="1.306" transform="matrix(0.755, 0.655, -0.655, 0.755, 527.105, 227.923)"/><circle class="k" cx="0.685" cy="0.685" r="0.685" transform="translate(516.567 235.158)"/><circle class="e" cx="0.685" cy="0.685" r="0.685" transform="translate(525.589 253.612)"/><rect class="k" width="4.57" height="1.306" transform="translate(495.825 247.309) rotate(99.861)"/><rect class="e" width="4.57" height="1.306" transform="matrix(-0.751, 0.661, -0.661, -0.751, 486.371, 245.607)"/><rect class="j" width="4.57" height="1.306" transform="matrix(-0.751, 0.661, -0.661, -0.751, 486.042, 230.926)"/><rect class="j" width="4.57" height="1.306" transform="translate(481.452 255.446) rotate(168.32)"/><rect class="e" width="1.224" height="1.224" transform="translate(472.514 246.443) rotate(129.521)"/><rect class="j" width="4.57" height="1.306" transform="matrix(-0.722, 0.692, -0.692, -0.722, 509.035, 267.492)"/><rect class="e" width="2.674" height="1.306" transform="translate(487.875 278.872) rotate(20.329)"/><circle class="e" cx="0.685" cy="0.685" r="0.685" transform="translate(484.681 271.536)"/><circle class="e" cx="0.685" cy="0.685" r="0.685" transform="translate(580.431 257.243)"/><rect class="e" width="2.674" height="1.306" transform="translate(557.968 265.082) rotate(-29.873)"/><rect class="e" width="4.57" height="1.306" transform="matrix(0.988, 0.155, -0.155, 0.988, 562.702, 273.441)"/><rect class="e" width="4.57" height="1.306" transform="translate(577.542 265.031) rotate(134.099)"/><circle class="k" cx="0.685" cy="0.685" r="0.685" transform="translate(569.489 254.073)"/><circle class="j" cx="0.685" cy="0.685" r="0.685" transform="translate(550.567 262.067)"/><rect class="j" width="2.674" height="1.306" transform="translate(565.751 235.431) rotate(79.813)"/><circle class="e" cx="0.685" cy="0.685" r="0.685" transform="translate(569.522 229.208)"/><rect class="e" width="2.674" height="1.306" transform="matrix(0.511, -0.859, 0.859, 0.511, 551.976, 239.039)"/><circle class="e" cx="0.685" cy="0.685" r="0.685" transform="translate(556.866 223.371)"/><rect class="e" width="4.57" height="1.306" transform="translate(464.679 247.319) rotate(-152.43)"/><rect class="e" width="2.501" height="1.48" transform="translate(469.017 238.9) rotate(-113.631)"/><rect class="e" width="4.57" height="1.306" transform="translate(456.528 234.301) rotate(-113.631)"/><circle class="e" cx="0.685" cy="0.685" r="0.685" transform="translate(431.928 267.92)"/><rect class="e" width="2.674" height="1.306" transform="translate(456.722 270.994) rotate(172.959)"/><rect class="e" width="4.57" height="1.306" transform="translate(455.603 261.453) rotate(-148.242)"/><rect class="e" width="4.57" height="1.306" transform="matrix(0.92, -0.392, 0.392, 0.92, 438.663, 263.446)"/><circle class="e" cx="0.685" cy="0.685" r="0.685" transform="translate(440.782 275.088)"/><circle class="e" cx="0.685" cy="0.685" r="0.685" transform="translate(461.323 275.062)"/><circle class="e" cx="0.685" cy="0.685" r="0.685" transform="translate(450.036 221.586)"/><circle class="e" cx="0.685" cy="0.685" r="0.685" transform="translate(528.745 329.498)"/><path class="k" d="M6.893,0h0a6.893,6.893,0,0,1,6.893,6.893v6.893a0,0,0,0,1,0,0H0a0,0,0,0,1,0,0V6.893A6.893,6.893,0,0,1,6.893,0Z" transform="translate(518.891 236.102) rotate(7.361)"/><rect class="k" width="16.953" height="2.577" transform="translate(515.307 250.499) rotate(7.361)"/><path class="l" d="M566.463,248.613l1.92-6.343L584.219,241l1.342-7.593" transform="translate(-39.981 -11.47)"/><path class="k" d="M5,0H61.24a5,5,0,0,1,5,5V8.549a0,0,0,0,1,0,0H0a0,0,0,0,1,0,0V5A5,5,0,0,1,5,0Z" transform="translate(466.222 445.711)"/><circle class="b" cx="3.32" cy="3.32" r="3.32" transform="translate(624.502 336.492)"/><circle class="e" cx="1.005" cy="1.005" r="1.005" transform="translate(329.903 312.047)"/><g transform="translate(667.647 219.061)"><path class="e" d="M734.4,231.582l-1.147.185-.185-1.148a.657.657,0,0,0-1.3.209l.185,1.147-1.149.185a.657.657,0,0,0,.206,1.3h0l1.149-.185.185,1.15a.656.656,0,0,0,1.3-.209l-.185-1.15,1.148-.184a.657.657,0,0,0-.21-1.3Z" transform="translate(-730.258 -230.069)"/></g><g transform="translate(314.613 325.181)"><path class="e" d="M324.774,354.715l-1.147.184-.185-1.147a.656.656,0,0,0-1.3.209l.184,1.148-1.149.184a.657.657,0,0,0,.206,1.3h0l1.15-.185.184,1.15a.657.657,0,0,0,1.3-.209l-.185-1.15,1.147-.185a.656.656,0,0,0-.209-1.3Z" transform="translate(-320.627 -353.202)"/></g><g transform="translate(332.767 285.526)"><path class="e" d="M344.675,309.122l-.714-.471.471-.713a.483.483,0,0,0-.8-.533l-.471.713-.714-.471a.482.482,0,0,0-.534.8h0l.714.472-.472.714a.483.483,0,0,0,.806.533l.472-.714.713.471a.483.483,0,0,0,.533-.8Z" transform="translate(-341.692 -307.189)"/></g><g transform="translate(679.255 315.928)"><path class="e" d="M747.873,343.979l-1.147.185-.184-1.148a.657.657,0,0,0-1.3.209l.185,1.147-1.149.185a.656.656,0,1,0,.206,1.3h0l1.149-.185.185,1.15a.656.656,0,0,0,1.3-.209l-.185-1.15,1.148-.184a.657.657,0,0,0-.209-1.3Z" transform="translate(-743.727 -342.466)"/></g><g transform="translate(329.307 340.125)"><path class="e" d="M339.646,371.262l-.545.088-.088-.546a.312.312,0,0,0-.616.1l.088.546-.546.088a.312.312,0,1,0,.1.615h0l.546-.088.088.546a.312.312,0,0,0,.616-.1l-.088-.546.545-.088a.312.312,0,0,0-.1-.615Z" transform="translate(-337.677 -370.542)"/></g><g transform="translate(351.025 331.873)"><path class="e" d="M366.28,363.312l-.791-.628.629-.791a.571.571,0,0,0-.895-.71l-.628.791-.792-.629a.571.571,0,1,0-.712.892l0,0,.792.629-.63.793a.571.571,0,0,0,.894.71l.63-.793.791.629a.571.571,0,0,0,.71-.895Z" transform="translate(-362.877 -360.967)"/></g><g transform="translate(688.592 190.409)"><path class="e" d="M757.019,197.722l-.68.109-.109-.681a.389.389,0,0,0-.769.124l.109.68-.681.11a.389.389,0,1,0,.122.769h0l.681-.109.109.682a.389.389,0,0,0,.769-.124l-.109-.682.68-.109a.389.389,0,0,0-.124-.768Z" transform="translate(-754.561 -196.824)"/></g><circle class="e" cx="1.733" cy="1.733" r="1.733" transform="translate(663.921 266.455)"/><circle class="e" cx="1.733" cy="1.733" r="1.733" transform="translate(311.826 266.187)"/><circle class="e" cx="0.779" cy="0.779" r="0.779" transform="translate(660.011 199.093)"/><g transform="translate(638.316 205.64)"><path class="e" d="M698.836,214.8l-.622.982-.982-.622a.656.656,0,0,0-.7,1.109l.982.622-.623.982a.657.657,0,0,0,1.108.7v0l.623-.983.983.623a.657.657,0,0,0,.7-1.109l-.984-.623.622-.982a.656.656,0,0,0-1.109-.7Z" transform="translate(-696.226 -214.497)"/></g><g transform="translate(298.701 354.407)"><path class="e" d="M304.775,387.417l-.622.982-.982-.621a.657.657,0,0,0-.7,1.109l.982.621-.622.983a.656.656,0,1,0,1.107.705l0,0,.622-.982.984.623a.656.656,0,0,0,.7-1.109l-.983-.623.622-.982a.657.657,0,0,0-1.109-.7Z" transform="translate(-302.164 -387.113)"/></g><g transform="translate(664.48 174.785)"><path class="e" d="M727.3,180.923l.472-.5.5.472a.389.389,0,0,0,.534-.567l-.5-.472.473-.5a.389.389,0,1,0-.566-.534h0l-.473.5-.5-.473a.389.389,0,0,0-.533.567l.5.473-.471.5a.389.389,0,1,0,.566.533Z" transform="translate(-726.585 -178.695)"/></g><g transform="translate(688.872 235.542)"><path class="e" d="M755.606,251.42l.472-.5.5.472a.389.389,0,0,0,.533-.567l-.5-.472.472-.5a.389.389,0,1,0-.566-.534h0l-.472.5-.5-.473a.389.389,0,0,0-.534.567l.5.473-.472.5a.389.389,0,0,0,.567.533Z" transform="translate(-754.886 -249.192)"/></g><circle class="e" cx="0.779" cy="0.779" r="0.779" transform="translate(629.049 187.867)"/><g transform="translate(638.572 167.495)"><path class="e" d="M699.812,174.459l-.106-1.157,1.157-.106a.657.657,0,0,0-.12-1.308l-1.157.107-.107-1.159a.656.656,0,1,0-1.307.117v0l.106,1.159-1.159.106a.656.656,0,0,0,.12,1.307l1.159-.106.106,1.157a.657.657,0,0,0,1.308-.12Z" transform="translate(-696.523 -170.237)"/></g><path class="h" d="M434.913,367.54l-3.475.381a.623.623,0,0,0-.483.326l-1.657,3.078a.626.626,0,0,1-1.121-.039l-1.436-3.188a.623.623,0,0,0-.458-.359l-3.44-.625a.625.625,0,0,1-.309-1.078l2.587-2.351a.625.625,0,0,0,.2-.547l-.47-3.465a.625.625,0,0,1,.93-.627l3.036,1.735a.626.626,0,0,0,.582.02l3.15-1.517a.625.625,0,0,1,.883.691l-.712,3.423a.627.627,0,0,0,.16.559l2.417,2.527A.625.625,0,0,1,434.913,367.54Z" transform="translate(-20.066 -28.817)"/><rect class="k" width="152.436" height="3.394" rx="1.697" transform="translate(449.367 219.742)"/><g transform="translate(460.454 366.86)"><path class="j" d="M568.043,454.852l-21.593,2.366a3.885,3.885,0,0,0-3,2.022l-10.293,19.129a3.887,3.887,0,0,1-6.966-.246l-8.923-19.8a3.887,3.887,0,0,0-2.85-2.228l-21.373-3.878a3.887,3.887,0,0,1-1.92-6.7L507.2,430.905a3.885,3.885,0,0,0,1.238-3.4l-2.917-21.525a3.887,3.887,0,0,1,5.78-3.9l18.86,10.779a3.889,3.889,0,0,0,3.615.127l19.571-9.426a3.887,3.887,0,0,1,5.492,4.294l-4.423,21.268a3.887,3.887,0,0,0,1,3.477l15.012,15.7A3.887,3.887,0,0,1,568.043,454.852Z" transform="translate(-489.849 -401.563)"/><path class="m" d="M555.883,408.678l-19.572,9.428a3.9,3.9,0,0,1-3.62-.129L513.834,407.2a3.878,3.878,0,0,0-5.4,1.612l-.388-2.835a3.889,3.889,0,0,1,5.783-3.9l18.857,10.782a3.9,3.9,0,0,0,3.62.121l19.572-9.42a3.885,3.885,0,0,1,5.49,4.292l-.483,2.3A3.876,3.876,0,0,0,555.883,408.678Z" transform="translate(-492.359 -401.563)"/><path class="n" d="M568.034,461.792l-21.585,2.38a3.8,3.8,0,0,0-2.984,2.031l-10.317,19.109a3.873,3.873,0,0,1-6.952-.222l-8.92-19.808a3.974,3.974,0,0,0-2.856-2.254l-21.363-3.872a3.888,3.888,0,0,1-1.937-6.7l.6-.539a3.551,3.551,0,0,0,1.335.508l21.363,3.873a3.859,3.859,0,0,1,2.856,2.222l8.92,19.808a3.874,3.874,0,0,0,6.952.254l10.317-19.141a3.844,3.844,0,0,1,2.984-2l21.585-2.38a3.519,3.519,0,0,0,1.65-.571l.73.762A3.87,3.87,0,0,1,568.034,461.792Z" transform="translate(-489.849 -408.521)"/></g><rect class="k" width="4.57" height="1.306" transform="translate(544.197 348.417) rotate(-130.602)"/><rect class="e" width="4.57" height="1.306" transform="translate(515.511 342.853) rotate(-113.371)"/><rect class="e" width="4.57" height="1.306" transform="translate(530.141 345.865) rotate(-172.46)"/><rect class="j" width="2.674" height="1.306" transform="matrix(-0.556, -0.831, 0.831, -0.556, 506.628, 370.061)"/><circle class="e" cx="0.685" cy="0.685" r="0.685" transform="translate(494.812 357.901)"/><circle class="e" cx="0.685" cy="0.685" r="0.685" transform="translate(504.075 376.235)"/><rect class="e" width="2.674" height="1.306" transform="matrix(0.686, -0.728, 0.728, 0.686, 485.99, 384.313)"/><rect class="e" width="4.57" height="1.306" transform="translate(487.909 360.962) rotate(180)"/><circle class="e" cx="0.685" cy="0.685" r="0.685" transform="translate(497.41 344.31)"/><rect class="e" width="4.57" height="1.306" transform="translate(507.522 390.37) rotate(49.398)"/><circle class="e" cx="0.685" cy="0.685" r="0.685" transform="translate(504.761 402.57)"/><rect class="k" width="2.674" height="1.306" transform="translate(517.809 361.242) rotate(97.176)"/><circle class="j" cx="0.685" cy="0.685" r="0.685" transform="translate(518.01 376.519)"/><circle class="e" cx="0.685" cy="0.685" r="0.685" transform="translate(523.03 356.6)"/><rect class="k" width="2.674" height="1.306" transform="translate(527.11 399.923) rotate(-123.021)"/><rect class="e" width="4.57" height="1.306" transform="matrix(0.101, -0.995, 0.995, 0.101, 535.196, 394.737)"/><rect class="k" width="4.57" height="1.306" transform="matrix(0.755, 0.655, -0.655, 0.755, 525.983, 380.382)"/><circle class="j" cx="0.685" cy="0.685" r="0.685" transform="translate(524.467 406.072)"/></g></svg>