<svg xmlns="http://www.w3.org/2000/svg" width="32" height="32" viewBox="0 0 32 32"><defs><style>.a{fill:#35b0cb;}.b{fill:#344154;}.c{fill:#ffc524;}.d{fill:none;}</style></defs><g transform="translate(-344 -3)"><g transform="translate(344 3)"><g transform="translate(3.006 4.557)"><g transform="translate(2.17 1.525)"><path class="a" d="M17.133,29.279s-2.925.272-3.9-1.915a3.418,3.418,0,0,1,.52-3.588,3.357,3.357,0,0,1,2.034-1.143,1.826,1.826,0,0,1,.62-2.216,2.684,2.684,0,0,1,2.268-.124,6.235,6.235,0,0,1,5.264-5.087s-5.064,1.754-3.882,6.452a1.761,1.761,0,0,0-2.348.487s-.58,1.032.084,1.71A2.4,2.4,0,0,0,15.526,24.9a2.6,2.6,0,0,0-.434,1.822A2.781,2.781,0,0,0,17.133,29.279Z" transform="translate(-12.94 -15.206)"/></g><path class="b" d="M14.31,28.407H12.366a4.852,4.852,0,0,1-1.881-9.323,3.079,3.079,0,0,1,3.081-2.844,3.176,3.176,0,0,1,.564.049,7.012,7.012,0,0,1,13.215-.437A6.288,6.288,0,0,1,33.5,22.127a.36.36,0,1,1-.72,0,5.567,5.567,0,0,0-5.565-5.557h-.11a.361.361,0,0,1-.324-.2l-.05-.1a6.293,6.293,0,0,0-11.966.4l-.042.148a.361.361,0,0,1-.436.25l-.148-.038A2.386,2.386,0,0,0,11.2,19.243l0,.107a.359.359,0,0,1-.234.322l-.1.036a4.131,4.131,0,0,0,1.5,7.979H14.31a.36.36,0,0,1,0,.72Z" transform="translate(-7.516 -11.393)"/><g transform="translate(8.92 7.047)"><path class="b" d="M37.735,44.849a7.919,7.919,0,1,1,7.919-7.919A7.928,7.928,0,0,1,37.735,44.849Zm0-15.118a7.2,7.2,0,1,0,7.2,7.2A7.207,7.207,0,0,0,37.735,29.731Z" transform="translate(-29.816 -29.011)"/><g transform="translate(1.609 1.61)"><path class="c" d="M40.149,33.035a6.31,6.31,0,1,0,6.31,6.31A6.309,6.309,0,0,0,40.149,33.035Zm0,10.938a4.629,4.629,0,1,1,4.629-4.628A4.628,4.628,0,0,1,40.149,43.973Z" transform="translate(-33.839 -33.035)"/></g><g transform="translate(6.189 4.387)"><path class="b" d="M48.016,44.872a.776.776,0,0,0-.236-.57A2.044,2.044,0,0,0,47,43.88a2.7,2.7,0,0,1-1.134-.606,1.359,1.359,0,0,1-.383-1.011,1.424,1.424,0,0,1,.353-1,1.52,1.52,0,0,1,.97-.465v-.821h.587V40.8a1.42,1.42,0,0,1,.964.509,1.775,1.775,0,0,1,.344,1.144h-.728a1.19,1.19,0,0,0-.234-.765.782.782,0,0,0-.647-.294.782.782,0,0,0-.877.855.781.781,0,0,0,.227.584,2.222,2.222,0,0,0,.814.424,2.8,2.8,0,0,1,1.126.611,1.34,1.34,0,0,1,.368.994,1.362,1.362,0,0,1-.383,1.017,1.7,1.7,0,0,1-1.051.448v.714H46.73v-.71a1.7,1.7,0,0,1-1.048-.467,1.524,1.524,0,0,1-.394-1.172l.007-.019H46a1.013,1.013,0,0,0,.29.816,1.061,1.061,0,0,0,.706.244,1.122,1.122,0,0,0,.748-.229A.785.785,0,0,0,48.016,44.872Z" transform="translate(-45.288 -39.978)"/></g></g></g><rect class="d" width="32" height="32"/></g></g></svg>