<svg xmlns="http://www.w3.org/2000/svg" width="32" height="32" viewBox="0 0 32 32"><defs><style>.a{fill:none;}.b{fill:#35b0cb;}.c{fill:#344154;}.d{fill:#ffc124;}</style></defs><g transform="translate(-46 -334)"><path class="a" d="M16,0A16,16,0,1,1,0,16,16,16,0,0,1,16,0Z" transform="translate(46 334)"/><g transform="translate(39.3 322.4)"><g transform="translate(18.583 26.773)"><rect class="b" width="4.688" height="2.282" transform="translate(0 0)"/></g><g transform="translate(11.364 26.815)"><path class="c" d="M30.306,47.984H13.42a1.116,1.116,0,0,1-1.12-1.12V38.732a.327.327,0,0,1,.332-.332.357.357,0,0,1,.332.332v8.09a.416.416,0,0,0,.415.415H30.265a.416.416,0,0,0,.415-.415V41.595a.327.327,0,0,1,.332-.332.357.357,0,0,1,.332.332v5.228A1.016,1.016,0,0,1,30.306,47.984Z" transform="translate(-12.3 -38.4)"/></g><g transform="translate(22.939 27.437)"><path class="c" d="M40.532,40.73A.327.327,0,0,1,40.2,40.4a.366.366,0,0,1,.332-.373,19.407,19.407,0,0,0,2.282-.124.353.353,0,0,1,.041.705,20.675,20.675,0,0,1-2.323.124Z" transform="translate(-40.2 -39.9)"/></g><g transform="translate(10.7 21.089)"><path class="c" d="M18.417,31.736h0a39.59,39.59,0,0,1-7.136-.747.683.683,0,0,1-.581-.705V25.72a1.116,1.116,0,0,1,1.12-1.12H25.553a.327.327,0,0,1,.332.332.357.357,0,0,1-.332.332H11.862a.416.416,0,0,0-.415.415V30.2a43.175,43.175,0,0,0,7.012.747.339.339,0,0,1,.332.373A.383.383,0,0,1,18.417,31.736Z" transform="translate(-10.7 -24.6)"/></g><g transform="translate(18.251 26.483)"><path class="c" d="M33.256,40.546H29.9a1.01,1.01,0,0,1-1-1V38.6a1.01,1.01,0,0,1,1-1h3.361a1.01,1.01,0,0,1,1,1v.954A1.01,1.01,0,0,1,33.256,40.546ZM29.9,38.222a.284.284,0,0,0-.29.29v.954a.284.284,0,0,0,.29.29h3.361a.284.284,0,0,0,.29-.29v-.954a.284.284,0,0,0-.29-.29Z" transform="translate(-28.9 -37.6)"/></g><g transform="translate(20.201 27.603)"><path class="c" d="M34.679,40.964h-.747a.327.327,0,0,1-.332-.332.357.357,0,0,1,.332-.332h.747a.332.332,0,0,1,0,.664Z" transform="translate(-33.6 -40.3)"/></g><g transform="translate(18.624 29.719)"><path class="c" d="M34.073,46.064H30.132a.327.327,0,0,1-.332-.332.357.357,0,0,1,.332-.332h3.941a.332.332,0,0,1,0,.664Z" transform="translate(-29.8 -45.4)"/></g><g transform="translate(16.343 18.6)"><path class="c" d="M33.179,21.795a.327.327,0,0,1-.332-.332V19.845a.549.549,0,0,0-.539-.539H25.5a.549.549,0,0,0-.539.539v1.618a.327.327,0,0,1-.332.332.357.357,0,0,1-.332-.332V19.845A1.248,1.248,0,0,1,25.545,18.6h6.763a1.248,1.248,0,0,1,1.245,1.245v1.618A.441.441,0,0,1,33.179,21.795Z" transform="translate(-24.3 -18.6)"/></g><g transform="translate(17.67 19.762)"><path class="c" d="M33.723,23.433a.327.327,0,0,1-.332-.332v-.954H28.164V23.1a.327.327,0,0,1-.332.332A.357.357,0,0,1,27.5,23.1V21.856a.46.46,0,0,1,.456-.456H33.64a.46.46,0,0,1,.456.456V23.1A.441.441,0,0,1,33.723,23.433Z" transform="translate(-27.5 -21.4)"/></g><g transform="translate(12.484 33.246)"><path class="b" d="M15,53.9v1.991H31.886V53.9A114.7,114.7,0,0,1,15,53.9Z" transform="translate(-15 -53.9)"/></g><g transform="translate(25.595 19.969)"><path class="c" d="M55.437,25.095a4.39,4.39,0,0,0-2.2-2.655,4.71,4.71,0,0,0-2.116-.539h0A4.551,4.551,0,0,0,47.8,29.534l-.166,1.2a.526.526,0,0,0,.041.249.228.228,0,0,0,.207.124h.041c.083,0,.124,0,.166-.041l.913-.581a4.544,4.544,0,0,0,6.016-1.908A4.144,4.144,0,0,0,55.437,25.095Zm-1.577,4.024a3.762,3.762,0,0,1-2.738,1.162h0a3.593,3.593,0,0,1-1.867-.5.353.353,0,0,0-.332,0l-.456.29.083-.622a.6.6,0,0,0-.083-.29,3.857,3.857,0,0,1-.041-5.435,3.911,3.911,0,0,1,2.7-1.162h.041a3.7,3.7,0,0,1,2.7,1.12,3.911,3.911,0,0,1,1.162,2.7A3.857,3.857,0,0,1,53.861,29.119Z" transform="translate(-46.6 -21.9)"/></g><g transform="translate(29.287 27.271)"><path class="d" d="M56.371,39.624a2.675,2.675,0,0,0,.83-.124H55.5A3.158,3.158,0,0,0,56.371,39.624Z" transform="translate(-55.5 -39.5)"/></g><g transform="translate(27.296 21.629)"><path class="d" d="M56.425,28.763a2.863,2.863,0,0,0-5.725,0,2.941,2.941,0,0,0,1.826,2.7c0-.041-.041-.041-.041-.083v-.622a.178.178,0,0,1,.166-.166h.124V28.846H52.65a.178.178,0,0,1-.166-.166v-.622a.178.178,0,0,1,.166-.166h1.494a.178.178,0,0,1,.166.166v2.531h.124a.178.178,0,0,1,.166.166v.622a.152.152,0,0,1-.041.124A2.949,2.949,0,0,0,56.425,28.763Zm-2.987-1.12a.705.705,0,0,1,0-1.411.727.727,0,0,1,.705.705A.674.674,0,0,1,53.438,27.643Z" transform="translate(-50.7 -25.9)"/></g><g transform="translate(29.08 27.188)"><path class="c" d="M55,39.3c.041.041.083.083.124.083h.083c-.041-.041-.124-.041-.207-.083Z" transform="translate(-55 -39.3)"/></g><g transform="translate(30.988 27.23)"><path class="c" d="M59.766,39.4Zm0,0c-.041,0-.124.041-.166.041h.041c.041,0,.083-.041.124-.041Z" transform="translate(-59.6 -39.4)"/></g><g transform="translate(29.038 23.62)"><path class="c" d="M56.56,30.7H55.066a.178.178,0,0,0-.166.166v.622a.178.178,0,0,0,.166.166h.124V33.4h-.124a.178.178,0,0,0-.166.166v.622c0,.041,0,.083.041.083.083.041.124.041.207.083h1.7c.041,0,.124-.041.166-.041a.152.152,0,0,0,.041-.124v-.622a.178.178,0,0,0-.166-.166h-.124V30.866c0-.124-.083-.166-.207-.166Zm-1.286.581v-.29h1.12v2.531a.178.178,0,0,0,.166.166h.124v.29H55.232v-.249h.124a.178.178,0,0,0,.166-.166V31.488a.178.178,0,0,0-.166-.166h-.083Z" transform="translate(-54.9 -30.7)"/></g><g transform="translate(29.329 21.919)"><path class="c" d="M56.305,26.6a.705.705,0,1,0,.705.705.675.675,0,0,0-.705-.705Zm0,1.12a.373.373,0,1,1,0-.747h0a.373.373,0,1,1,0,.747Z" transform="translate(-55.6 -26.6)"/></g></g></g></svg>