<svg xmlns="http://www.w3.org/2000/svg" width="32" height="32" viewBox="0 0 32 32"><defs><style>.a{fill:none;}.b{fill:#35b0cb;}.c{fill:#344154;}.d{fill:#ffc124;}</style></defs><g transform="translate(-46 -381)"><path class="a" d="M16,0A16,16,0,1,1,0,16,16,16,0,0,1,16,0Z" transform="translate(46 381)"/><g transform="translate(41.1 370.9)"><g transform="translate(24.443 24.066)"><g transform="translate(-3.303)"><g transform="translate(3.462 1.804)"><path class="b" d="M56.813,39.853l-.3.2a2.327,2.327,0,0,1-.5.249,2.119,2.119,0,0,1-.548.1l-.4.1-.4-.1-.349-.149a1.759,1.759,0,0,1-.847-.747l-.2-.3-.2-.4v-.4a2.056,2.056,0,0,1,.2-1.1l.149-.349.3-.349.3-.2a2.327,2.327,0,0,1,.5-.249,2.119,2.119,0,0,1,.548-.1l.4-.05.4.05.349.149a1.759,1.759,0,0,1,.847.747l.2.3.149.4.05.4a2.056,2.056,0,0,1-.2,1.1l-.149.349Zm-1.943-2.74a1.374,1.374,0,0,0-.7.6,1.128,1.128,0,0,0-.05.9,1.374,1.374,0,0,0,.6.7,1.128,1.128,0,0,0,.9.05,1.374,1.374,0,0,0,.7-.6,1.128,1.128,0,0,0,.05-.9,1.374,1.374,0,0,0-.6-.7A1.389,1.389,0,0,0,54.87,37.113Z" transform="translate(-52.4 -35.3)"/></g><g transform="translate(1.807)"><path class="c" d="M55.168,43.1h-.121l-.729-.122a.732.732,0,0,1-.608-.911l.061-.486a3.024,3.024,0,0,1-1.033-.911l-.425.182a1.035,1.035,0,0,1-.608,0,.957.957,0,0,1-.425-.425l-.3-.79a.838.838,0,0,1,.486-1.033l.425-.182a3.269,3.269,0,0,1,.243-1.337l-.365-.3a.844.844,0,0,1-.122-1.094l.486-.608a.844.844,0,0,1,1.094-.122l.365.3a3.675,3.675,0,0,1,1.276-.486l.061-.486a1.323,1.323,0,0,1,.3-.486.706.706,0,0,1,.608-.122l.729.122a.732.732,0,0,1,.608.911l-.061.486a3.024,3.024,0,0,1,1.033.911l.425-.182a1.035,1.035,0,0,1,.608,0,.734.734,0,0,1,.425.425l.243.729a1.035,1.035,0,0,1,0,.608.957.957,0,0,1-.425.425L59,38.3a3.269,3.269,0,0,1-.243,1.337l.365.3a.818.818,0,0,1,.3.547.848.848,0,0,1-.182.547l-.486.608a.844.844,0,0,1-1.094.122l-.365-.3a3.675,3.675,0,0,1-1.276.486l-.061.486a1.323,1.323,0,0,1-.3.486A.808.808,0,0,1,55.168,43.1ZM52.92,39.942l.122.182A2.921,2.921,0,0,0,54.2,41.1l.182.122-.182.911c0,.121.061.182.122.182l.729.122h.121c.061,0,.061-.061.061-.122l.182-.911h.243a3.294,3.294,0,0,0,1.458-.547l.182-.122.729.608a.185.185,0,0,0,.243,0l.486-.608a.185.185,0,0,0,0-.243l-.729-.608.122-.182a2.606,2.606,0,0,0,.243-1.519v-.243l.851-.3c.061,0,.061-.061.122-.122v-.122l-.243-.729c0-.061-.061-.061-.122-.122h-.122l-.79.365-.121-.182a3.348,3.348,0,0,0-1.215-1.033l-.182-.121.182-.911c0-.122-.061-.182-.122-.182l-.79-.122h-.122l-.122.122-.182.911h-.243a3.294,3.294,0,0,0-1.458.547l-.182.122-.729-.608c-.061,0-.061-.061-.122-.061s-.122,0-.122.061l-.486.608a.185.185,0,0,0,0,.243l.729.608-.122.182a2.606,2.606,0,0,0-.243,1.519v.243l-.851.3c-.121.061-.121.122-.121.243l.243.729c0,.061.061.061.122.121h.122Z" transform="translate(-50.939 -33.661)"/></g><g transform="translate(5.18 3.609)"><path class="c" d="M57.651,41.909a1.43,1.43,0,0,1-.486-.122,1.1,1.1,0,0,1-.608-.668,1.027,1.027,0,0,1,.061-.851,1.131,1.131,0,0,1,1.519-.547h0a1.185,1.185,0,0,1,.547,1.519A1.123,1.123,0,0,1,57.651,41.909Zm0-1.7a.541.541,0,0,0-.486.3.519.519,0,0,0,0,.425.5.5,0,0,0,.3.3.543.543,0,0,0,.486-.972A.66.66,0,0,0,57.651,40.208Z" transform="translate(-56.491 -39.602)"/></g></g></g><g transform="translate(12.817 20.055)"><rect class="d" width="17.636" height="2.185" transform="translate(0 0)"/></g><g transform="translate(12.51 19.749)"><path class="c" d="M27.483,37.544H15.407a.3.3,0,0,1-.307-.307V22.707a.3.3,0,0,1,.307-.307H33.042a.3.3,0,0,1,.307.307v3.374a.3.3,0,0,1-.307.307.369.369,0,0,1-.345-.307V23.013H15.752V36.892h11.77a.3.3,0,0,1,.307.307A.371.371,0,0,1,27.483,37.544Z" transform="translate(-15.1 -22.4)"/></g><g transform="translate(12.51 21.972)"><path class="c" d="M33.042,28.813H15.407a.3.3,0,0,1-.307-.307.33.33,0,0,1,.307-.307H33.042a.307.307,0,0,1,0,.613Z" transform="translate(-15.1 -28.2)"/></g><g transform="translate(14.465 24.042)"><rect class="b" width="7.859" height="2.76" transform="translate(0)"/></g><g transform="translate(14.159 28.8)"><path class="c" d="M27.6,44.013h-7.9a.3.3,0,0,1-.307-.307.33.33,0,0,1,.307-.307h7.859a.3.3,0,0,1,.307.307A.3.3,0,0,1,27.6,44.013Z" transform="translate(-19.4 -43.4)"/></g><g transform="translate(14.159 30.713)"><path class="c" d="M27.6,51.613h-7.9a.3.3,0,0,1-.307-.307A.33.33,0,0,1,19.707,51h7.859a.3.3,0,0,1,.307.307A.3.3,0,0,1,27.6,51.613Z" transform="translate(-19.4 -51)"/></g><g transform="translate(10.9 18.1)"><path class="c" d="M12.817,33.282h-1.61a.3.3,0,0,1-.307-.307V18.407a.3.3,0,0,1,.307-.307h15.45a.3.3,0,0,1,.307.307v1.61a.3.3,0,0,1-.307.307.33.33,0,0,1-.307-.307v-1.3H11.513V32.63h1.3a.3.3,0,0,1,.307.307A.336.336,0,0,1,12.817,33.282Z" transform="translate(-10.9 -18.1)"/></g></g></g></svg>