<svg xmlns="http://www.w3.org/2000/svg" width="32" height="32" viewBox="0 0 32 32"><defs><style>.a{fill:none;}.b{fill:#ffc124;}.c{fill:#35b0cb;}.d{fill:#344154;}</style></defs><g transform="translate(-48 -459)"><path class="a" d="M16,0A16,16,0,1,1,0,16,16,16,0,0,1,16,0Z" transform="translate(48 459)"/><g transform="translate(41 449.511)"><path class="b" d="M14.709,18.906a5.158,5.158,0,0,1,2.45-.514,5.26,5.26,0,0,1,2.45.514c.553.277.869.672.869,1.028v.119h-.04c-.04.356-.4.672-.869.948a5.158,5.158,0,0,1-2.45.514A5.931,5.931,0,0,1,14.669,21c-.553-.277-.869-.672-.869-1.028A1.444,1.444,0,0,1,14.709,18.906Z" transform="translate(-1.089 -1.148)"/><path class="b" d="M27.954,41.8H27.52a5.931,5.931,0,0,0-2.45.514c-.553.277-.869.632-.869,1.027s.316.751.869,1.028a5.158,5.158,0,0,0,2.45.514h.04c0-.2-.04-.435-.04-.632A5.847,5.847,0,0,1,27.954,41.8Z" transform="translate(-7.379 -15.308)"/><path class="b" d="M38.23,29.714A5.627,5.627,0,0,0,35.82,29.2a5.931,5.931,0,0,0-2.45.514c-.553.277-.869.632-.869,1.028s.316.751.869,1.028a4.649,4.649,0,0,0,.79.277A7.417,7.417,0,0,1,38.23,29.714Z" transform="translate(-12.399 -7.688)"/><g transform="translate(21.514 22.922)"><g transform="translate(3.105 2.871)"><path class="c" d="M46.922,40.058a3.382,3.382,0,1,0,3.754,2.964A3.377,3.377,0,0,0,46.922,40.058Zm.553,4.663a1.314,1.314,0,1,1,1.146-1.462A1.326,1.326,0,0,1,47.476,44.722Z" transform="translate(-43.931 -40.031)"/></g><g transform="translate(0 0)"><path class="d" d="M40.906,45.228a1.4,1.4,0,0,1-.4-.079l-.988-.435a1.012,1.012,0,0,1-.514-1.344l.277-.672a5.02,5.02,0,0,1-1.225-1.62l-.711.079a1.021,1.021,0,0,1-1.146-.869l-.119-1.067a.99.99,0,0,1,.2-.751,1.068,1.068,0,0,1,.672-.4L37.665,38a4.569,4.569,0,0,1,.79-1.857l-.435-.593a1.053,1.053,0,0,1,.2-1.423l.869-.632a.99.99,0,0,1,.751-.2,1.068,1.068,0,0,1,.672.4l.435.593a4.966,4.966,0,0,1,2.015-.237l.277-.672a1.012,1.012,0,0,1,1.344-.514l.988.435a1.012,1.012,0,0,1,.514,1.344l-.277.672a5.02,5.02,0,0,1,1.225,1.62l.711-.079a.99.99,0,0,1,.751.2,1.068,1.068,0,0,1,.4.672l.119,1.067a.99.99,0,0,1-.2.751,1.068,1.068,0,0,1-.672.4l-.711.079a4.569,4.569,0,0,1-.79,1.857l.435.593a1.053,1.053,0,0,1-.2,1.423L46,44.517a1.053,1.053,0,0,1-1.423-.2l-.435-.593a4.966,4.966,0,0,1-2.015.237l-.277.672A.991.991,0,0,1,40.906,45.228ZM38.5,40.407l.079.237a4.059,4.059,0,0,0,1.3,1.739l.2.158L39.6,43.687a.309.309,0,0,0,.2.435l.988.435a.32.32,0,0,0,.435-.2l.474-1.146.237.04a4.154,4.154,0,0,0,2.174-.277l.237-.079.751.988a.328.328,0,0,0,.474.079l.869-.632a.328.328,0,0,0,.079-.474l-.751-.988.158-.2a4.2,4.2,0,0,0,.869-2.015l.04-.237,1.225-.158a.342.342,0,0,0,.237-.119.562.562,0,0,0,.079-.237l-.119-1.067a.385.385,0,0,0-.4-.316l-1.225.158-.079-.237a4.059,4.059,0,0,0-1.3-1.739l-.2-.158L45.53,34.4a.32.32,0,0,0-.2-.435l-.988-.474a.334.334,0,0,0-.277,0,.325.325,0,0,0-.2.2L43.4,34.835l-.237-.04a4.056,4.056,0,0,0-2.174.277l-.237.079L40,34.163a.239.239,0,0,0-.237-.119c-.079,0-.2,0-.237.079l-.869.632a.328.328,0,0,0-.079.474l.751.988-.158.2a4.2,4.2,0,0,0-.869,2.015l-.04.237-1.186.119a.342.342,0,0,0-.237.119.562.562,0,0,0-.079.237l.119,1.067a.385.385,0,0,0,.4.316Z" transform="translate(-36.075 -32.767)"/></g><g transform="translate(4.955 4.788)"><path class="d" d="M50.149,47.892a1.7,1.7,0,0,1-.948-.316,1.476,1.476,0,0,1-.237-2.134,1.408,1.408,0,0,1,1.028-.553A1.588,1.588,0,0,1,51.1,45.2h0a1.408,1.408,0,0,1,.553,1.028,1.588,1.588,0,0,1-.316,1.107A1.681,1.681,0,0,1,50.149,47.892Zm0-2.371h-.119a.865.865,0,0,0-.553.316.846.846,0,1,0,1.344,1.028.741.741,0,0,0,.158-.632.865.865,0,0,0-.316-.553h0A.794.794,0,0,0,50.149,45.521Z" transform="translate(-48.613 -44.881)"/></g></g><path class="d" d="M20.062,32.973a5.364,5.364,0,0,1-2.45-.514c-.4-.2-.869-.553-.869-1.067v-.316c.158.119.356.237.553.356a6.124,6.124,0,0,0,2.766.593,3.834,3.834,0,0,0,.672-.04,5.278,5.278,0,0,1-.277-.711h-.4a5.931,5.931,0,0,1-2.45-.514c-.4-.2-.869-.553-.869-1.067v-.4c.158.119.356.237.553.356a6.124,6.124,0,0,0,2.766.593h.2a4.377,4.377,0,0,1-.079-.751h-.119a5.931,5.931,0,0,1-2.45-.514c-.553-.277-.869-.632-.869-1.028s.316-.751.869-1.028a5.678,5.678,0,0,1,2.45-.514,2.991,2.991,0,0,1,.593.04,5.6,5.6,0,0,1,.316-.711h-.119a1.283,1.283,0,0,1-.751-.988v-.4a3.645,3.645,0,0,0,1.3.632c.158-.237.316-.435.474-.632a7.687,7.687,0,0,1-.869-.316c-1.186-.593-1.186-1.462,0-2.055a5.1,5.1,0,0,1,2.411-.514,5.67,5.67,0,0,1,2.292.474,10.109,10.109,0,0,1,1.067-.2,3.1,3.1,0,0,0-.593-.4,6.124,6.124,0,0,0-2.766-.593,6.7,6.7,0,0,0-2.766.593,5.149,5.149,0,0,0-.593.4V18.9A2.009,2.009,0,0,0,18.8,17.086a6.124,6.124,0,0,0-2.766-.593,6.7,6.7,0,0,0-2.766.593A1.959,1.959,0,0,0,12,18.746v9.919a2.057,2.057,0,0,0,1.265,1.7,6.124,6.124,0,0,0,2.766.593v.632a2.125,2.125,0,0,0,1.265,1.5,6.124,6.124,0,0,0,2.766.593,6.806,6.806,0,0,0,1.541-.158,3.915,3.915,0,0,1-.435-.672A2.588,2.588,0,0,1,20.062,32.973ZM13.62,17.758a5.158,5.158,0,0,1,2.45-.514,5.259,5.259,0,0,1,2.45.514c.553.277.869.672.869,1.028V18.9h-.04c-.04.356-.4.672-.869.948a5.158,5.158,0,0,1-2.45.514,5.931,5.931,0,0,1-2.45-.514c-.553-.277-.869-.672-.869-1.028A1.444,1.444,0,0,1,13.62,17.758Zm-.909,2.332a5.444,5.444,0,0,0,3.32.948,5.771,5.771,0,0,0,3.32-.909v.158l-.04.04c0,.04.04.079.04.119v.2h-.04a1.422,1.422,0,0,1-.869.909,5.158,5.158,0,0,1-2.45.514,5.931,5.931,0,0,1-2.45-.514c-.4-.2-.869-.553-.869-1.067v-.4Zm6.639,1.976v.2a1.422,1.422,0,0,1-.869.909,5.158,5.158,0,0,1-2.45.514,5.931,5.931,0,0,1-2.45-.514c-.4-.2-.869-.553-.869-1.067h0v-.277a5.444,5.444,0,0,0,3.32.948,5.444,5.444,0,0,0,3.32-.948v.079l-.04.04A.145.145,0,0,1,19.351,22.066Zm-6.6,1.739v-.277a5.444,5.444,0,0,0,3.32.948,5.444,5.444,0,0,0,3.32-.948v.079l-.04.04c0,.04.04.079.04.119v.2a1.518,1.518,0,0,1-.869.909,5.158,5.158,0,0,1-2.45.514,5.8,5.8,0,0,1-2.45-.514c-.4-.237-.909-.593-.869-1.067Zm3.28,5.651v.79a5.627,5.627,0,0,1-2.411-.514c-.4-.2-.869-.553-.869-1.067v-.158a5.434,5.434,0,0,0,3.28.948Zm0-1.423V28.7a5.627,5.627,0,0,1-2.411-.514c-.4-.2-.909-.553-.869-1.067v-.356a5.637,5.637,0,0,0,3.32.948A.982.982,0,0,0,16.031,28.033Zm.4-1.067a5.321,5.321,0,0,1-2.845-.514c-.4-.2-.869-.553-.869-1.067v-.277a5.444,5.444,0,0,0,3.32.948,5.444,5.444,0,0,0,3.32-.948v.079l-.04.04c0,.04.04.079.04.119v.2a.562.562,0,0,1-.079.237h0a5.917,5.917,0,0,0-1.976.553A6.989,6.989,0,0,0,16.426,26.966Z" transform="translate(0 0)"/></g></g></svg>