<svg xmlns="http://www.w3.org/2000/svg" width="237" height="178" viewBox="0 0 237 178"><defs><style>.a,.b,.c{fill:none;}.a,.b{stroke:#344154;stroke-miterlimit:10;stroke-width:2px;}.b{stroke-linecap:round;}</style></defs><g transform="translate(-565 -152)"><g transform="translate(-213.427 -687.921)"><path class="a" d="M863.661,946.011a6.763,6.763,0,1,1-6.763-6.762A6.762,6.762,0,0,1,863.661,946.011Z"/><line class="a" y2="11.615" transform="translate(856.898 958.63)"/><line class="a" y1="16.193" transform="translate(867.727 972.379)"/><line class="a" y2="16.193" transform="translate(846.069 972.379)"/><path class="a" d="M837.427,988.572V967.648c0-4.98,2.663-9.017,7.643-9.017h23.656"/><path class="a" d="M868.726,958.631h0c4.98,0,7.642,4.037,7.642,9.017v11.578"/><path class="a" d="M902.6,946.011a6.763,6.763,0,1,1-6.762-6.762A6.762,6.762,0,0,1,902.6,946.011Z"/><line class="a" y2="11.615" transform="translate(895.839 958.63)"/><line class="a" y1="16.193" transform="translate(906.667 972.379)"/><line class="a" y2="16.193" transform="translate(885.01 972.379)"/><path class="a" d="M876.368,979.226V967.648c0-4.98,2.663-9.017,7.643-9.017h23.656"/><path class="a" d="M907.666,958.631h0c4.98,0,7.642,4.037,7.642,9.017v11.578"/><path class="a" d="M941.542,946.011a6.762,6.762,0,1,1-6.763-6.762A6.762,6.762,0,0,1,941.542,946.011Z"/><line class="a" y2="11.615" transform="translate(934.779 958.63)"/><line class="a" y1="16.193" transform="translate(945.608 972.379)"/><line class="a" y2="16.193" transform="translate(923.951 972.379)"/><path class="a" d="M915.309,979.226V967.648c0-4.98,2.662-9.017,7.643-9.017h23.655"/><path class="a" d="M946.607,958.631h0c4.981,0,7.643,4.037,7.643,9.017v20.924"/><rect class="b" width="81.204" height="42.028" transform="translate(855.237 882.164)"/><path class="b" d="M937.426,882.164H854.251c-1.65,0-2.987-1.622-2.987-3.622h0c0-2,1.337-3.621,2.987-3.621h83.175c1.65,0,2.988,1.621,2.988,3.621h0C940.414,880.542,939.076,882.164,937.426,882.164Z"/><line class="b" y2="7.477" transform="translate(898.993 924.192)"/><line class="b" y1="7.477" transform="translate(892.684 924.192)"/><line class="b" x2="99.539" transform="translate(846.069 988.572)"/><path class="b" d="M869.346,911.577,883.9,900.416l6.89,7.012,11.682-9.132,5.763,5.958,14.1-10.555"/></g><rect class="c" width="237" height="178" transform="translate(565 152)"/></g></svg>