<svg xmlns="http://www.w3.org/2000/svg" width="32" height="32" viewBox="0 0 32 32"><defs><style>.a{fill:none;}.b{fill:#ffc124;}.c{fill:#35b0cb;}.d{fill:#344154;}</style></defs><g transform="translate(-46 -428)"><path class="a" d="M16,0A16,16,0,1,1,0,16,16,16,0,0,1,16,0Z" transform="translate(46 428)"/><g transform="translate(-1035.823 -328.786)"><ellipse class="b" cx="2.289" cy="2.289" rx="2.289" ry="2.289" transform="translate(1099.283 774.191)"/><path class="c" d="M30.054,35.2l-2.151.538-.7.827.7.993h4.343l.083-.579-.455-1.241-1.034.083" transform="translate(1063.329 734.936)"/><g transform="translate(1100.864 775.313)"><path class="d" d="M48.6,49.9a.4.4,0,0,0-.4.4v.718a.431.431,0,0,1-.314.4.363.363,0,0,0-.224.494.376.376,0,0,0,.359.269.165.165,0,0,0,.135-.045,1.258,1.258,0,0,0,.808-1.167v-.718C49,50.08,48.825,49.9,48.6,49.9Z" transform="translate(-47.623 -49.9)"/></g><g transform="translate(1088.545 766.036)"><path class="d" d="M24.6,36.987H18.857a.45.45,0,0,1-.449-.449V21.9a.4.4,0,1,0-.808,0V36.538a1.285,1.285,0,0,0,1.257,1.257h5.79a.4.4,0,0,0,.4-.4A.477.477,0,0,0,24.6,36.987Z" transform="translate(-17.6 -21.5)"/></g><g transform="translate(1088.5 763.432)"><path class="d" d="M18.308,18.663V16.373c0-.4-.18-.673-.4-.673s-.4.314-.4.673v2.289c0,.4.18.673.4.673S18.308,19.022,18.308,18.663Z" transform="translate(-17.5 -15.7)"/></g><g transform="translate(1091.315 764.51)"><path class="d" d="M33.319,23.42h0v-.414c0-.041,0-.041-.041-.083v-.041c0-.041,0-.041-.041-.083v-.041a.041.041,0,0,0-.041-.041v-.041a1087.385,1087.385,0,0,1-.124-.124l-.041-.041v-.041a.842.842,0,0,0-.248-.29h0l-.041-.041h0L32.7,22.1l-.041-.041-.041-.041h0l-.041-.041h-.041l-.041-.041h-.041a.041.041,0,0,1-.041-.041l-.041-.041a.041.041,0,0,1-.041-.041H32.2c-.041,0-.041-.041-.083-.041h0a2.017,2.017,0,0,0-.455-.165h-.414A2.136,2.136,0,0,0,29.1,23.751v.786a2.151,2.151,0,1,0,4.3,0V23.5C33.319,23.462,33.319,23.462,33.319,23.42Zm-2.068-1.2h.372c.041,0,.041,0,.083.041h0c.041,0,.041,0,.083.041h0c.041,0,.041,0,.083.041h.041a.041.041,0,0,1,.041.041h0a.041.041,0,0,1,.041.041h0a.041.041,0,0,1,.041.041h0a.041.041,0,0,1,.041.041h0l.041.041.041.041.041.041.041.041.041.041h0a.041.041,0,0,0,.041.041h0a.041.041,0,0,0,.041.041h0a.041.041,0,0,0,.041.041v.041a.041.041,0,0,0,.041.041v.29h0v.041h0c.041.083.041.207.083.29v.041a1.431,1.431,0,0,1-.455-.414.419.419,0,0,0-.29-.165.376.376,0,0,0-.29.124,1.784,1.784,0,0,1-1.324.579,2.076,2.076,0,0,1-.5-.083v-.455h0c0-.041,0-.041.041-.083h0v-.331l.041-.041v-.041l.041-.041v-.041l.041-.041.041-.041.041-.041.041-.041.041-.041.041-.041.041-.041h.041l.041-.041h1.117C31.21,22.221,31.251,22.221,31.251,22.221Zm-.083,3.723a1.4,1.4,0,0,1-1.406-1.406V24.33a2.014,2.014,0,0,0,.5.041,2.458,2.458,0,0,0,1.53-.538,1.875,1.875,0,0,0,.786.455V24.5A1.4,1.4,0,0,1,31.168,25.944Z" transform="translate(-29.1 -21.6)"/></g><g transform="translate(1090.405 770.136)"><path class="d" d="M32.9,37.1a2.25,2.25,0,0,0-1.489-1.862h-.041c-.041,0-.041,0-.083-.041H28.513c-.041,0-.041,0-.083.041h-.041A2.237,2.237,0,0,0,26.9,37.1c0,.124.041.29.165.331a5.123,5.123,0,0,0,5.708,0A.343.343,0,0,0,32.9,37.1Zm-3.02.455a4.23,4.23,0,0,1-2.234-.621,1.469,1.469,0,0,1,.993-1.034h2.44a1.547,1.547,0,0,1,.993,1.034A3.891,3.891,0,0,1,29.878,37.558Z" transform="translate(-26.9 -35.2)"/></g><g transform="translate(1100.17 766.081)"><path class="d" d="M43.9,22.632a.4.4,0,0,0,0,.808h4.219a1.442,1.442,0,0,0,1.347,1.032,1.436,1.436,0,0,0,0-2.873,1.4,1.4,0,0,0-1.347,1.032H43.9Zm5.566-.224a.628.628,0,1,1-.628.628A.642.642,0,0,1,49.47,22.408Z" transform="translate(-43.5 -21.6)"/></g><g transform="translate(1088.545 762.4)"><path class="d" d="M32.053,17.62a.354.354,0,0,1-.359-.359V14.836a.69.69,0,0,0-.673-.673H18.991a.69.69,0,0,0-.673.673.354.354,0,0,1-.359.359.386.386,0,0,1-.359-.359A1.446,1.446,0,0,1,19.036,13.4H31.066A1.446,1.446,0,0,1,32.5,14.836V17.26A.533.533,0,0,1,32.053,17.62Z" transform="translate(-17.6 -13.4)"/></g><g transform="translate(1095.198 770.016)"><g transform="translate(2.828 2.918)"><path class="d" d="M44.846,51.692a3.546,3.546,0,1,1,3.546-3.546A3.554,3.554,0,0,1,44.846,51.692Zm0-6.329a2.783,2.783,0,1,0,2.783,2.783A2.768,2.768,0,0,0,44.846,45.363Z" transform="translate(-41.3 -44.6)"/></g><path class="d" d="M41.778,50.893h-.763a1,1,0,0,1-.987-.988.229.229,0,0,0-.18-.224,4.233,4.233,0,0,1-1.032-.449.211.211,0,0,0-.269.045,1.033,1.033,0,0,1-1.391,0l-.539-.539a1.033,1.033,0,0,1,0-1.392.211.211,0,0,0,.045-.269,7.162,7.162,0,0,1-.449-1.032.3.3,0,0,0-.224-.18A1,1,0,0,1,35,44.878v-.763a1,1,0,0,1,.987-.988.229.229,0,0,0,.224-.18,4.234,4.234,0,0,1,.449-1.032.211.211,0,0,0-.045-.269,1.033,1.033,0,0,1,0-1.392l.539-.539a1.033,1.033,0,0,1,1.391,0,.211.211,0,0,0,.269.045,7.162,7.162,0,0,1,1.032-.449.3.3,0,0,0,.18-.224,1,1,0,0,1,.987-.988h.763a1,1,0,0,1,.987.988.229.229,0,0,0,.18.224,4.234,4.234,0,0,1,1.032.449.211.211,0,0,0,.269-.045,1.033,1.033,0,0,1,1.391,0l.539.539a1.033,1.033,0,0,1,0,1.392.211.211,0,0,0-.045.269,7.163,7.163,0,0,1,.449,1.032.3.3,0,0,0,.224.18,1,1,0,0,1,.987.988v.763a1,1,0,0,1-.987.988.229.229,0,0,0-.224.18,4.234,4.234,0,0,1-.449,1.032.211.211,0,0,0,.045.269,1.033,1.033,0,0,1,0,1.392l-.539.539a1.033,1.033,0,0,1-1.391,0,.211.211,0,0,0-.269-.045,7.161,7.161,0,0,1-1.032.449.3.3,0,0,0-.18.224A1.027,1.027,0,0,1,41.778,50.893Zm-3.052-2.379a.758.758,0,0,1,.449.135,5.35,5.35,0,0,0,.9.359.97.97,0,0,1,.673.943.212.212,0,0,0,.224.224h.763a.212.212,0,0,0,.224-.224.97.97,0,0,1,.673-.943,5.35,5.35,0,0,0,.9-.359.963.963,0,0,1,1.167.18.217.217,0,0,0,.314,0l.539-.539a.217.217,0,0,0,0-.314,1.021,1.021,0,0,1-.18-1.167,5.351,5.351,0,0,0,.359-.9.97.97,0,0,1,.943-.673.212.212,0,0,0,.224-.224V44.25a.212.212,0,0,0-.224-.224.97.97,0,0,1-.943-.673,5.35,5.35,0,0,0-.359-.9.963.963,0,0,1,.18-1.167.217.217,0,0,0,0-.314l-.539-.539a.217.217,0,0,0-.314,0,1.007,1.007,0,0,1-1.122.135,5.35,5.35,0,0,0-.9-.359A.97.97,0,0,1,42,39.267a.212.212,0,0,0-.224-.224h-.763a.212.212,0,0,0-.224.224.97.97,0,0,1-.673.943,5.35,5.35,0,0,0-.9.359.963.963,0,0,1-1.167-.18.217.217,0,0,0-.314,0l-.539.539a.217.217,0,0,0,0,.314,1.021,1.021,0,0,1,.18,1.167,5.35,5.35,0,0,0-.359.9.97.97,0,0,1-.943.673.212.212,0,0,0-.224.224v.763a.212.212,0,0,0,.224.224.97.97,0,0,1,.943.673,5.351,5.351,0,0,0,.359.9.963.963,0,0,1-.18,1.167.217.217,0,0,0,0,.314l.539.539a.217.217,0,0,0,.314,0A.99.99,0,0,1,38.726,48.514Z" transform="translate(-35 -38.1)"/><g transform="translate(1.975 2.109)"><path class="b" d="M39.4,47.2h.673a3.726,3.726,0,1,1,7.451,0H48.2a4.406,4.406,0,0,0-4.4-4.4A4.349,4.349,0,0,0,39.4,47.2Z" transform="translate(-39.4 -42.798)"/></g></g></g></g></svg>