<svg xmlns="http://www.w3.org/2000/svg" width="237" height="178" viewBox="0 0 237 178"><defs><style>.a{fill:#ffc124;}.b{fill:#35b0cb;}.c,.d,.e{fill:none;}.c,.d{stroke:#344154;stroke-miterlimit:10;stroke-width:2px;}.c{stroke-linecap:round;}</style></defs><g transform="translate(-565 -152)"><g transform="translate(0 -4)"><path class="a" d="M925.43,1096.251a4.65,4.65,0,1,1-9.3-.229,4.774,4.774,0,0,1,4.927-4.584A4.723,4.723,0,0,1,925.43,1096.251Z" transform="translate(-273.31 -874.993)"/><path class="b" d="M925.43,1096.251a4.65,4.65,0,1,1-9.3-.229,4.774,4.774,0,0,1,4.927-4.584A4.723,4.723,0,0,1,925.43,1096.251Z" transform="translate(-273.31 -847.993)"/><path class="c" d="M966.337,1140.29V1105.6a5.657,5.657,0,0,0-5.657-5.657h0a5.658,5.658,0,0,0-5.658,5.657v46.138" transform="translate(-274.415 -876.107)"/><path class="c" d="M977.739,1140.29v-12.707a5.657,5.657,0,0,0-5.658-5.657h0a5.657,5.657,0,0,0-5.657,5.657v12.631" transform="translate(-274.415 -876.107)"/><path class="c" d="M989.053,1140.29v-8.924a5.657,5.657,0,0,0-5.657-5.657h0a5.657,5.657,0,0,0-5.657,5.657v8.848" transform="translate(-274.415 -876.107)"/><path class="c" d="M989.053,1139.189v.34a5.658,5.658,0,0,1,5.658-5.658h0a5.658,5.658,0,0,1,5.657,5.658v26.037s-.359,10.462-12.876,16.463-21.858.789-26.57-3.754c-.011-.011-.021-.022-.031-.034L936.8,1148.509a5.657,5.657,0,0,1,.882-7.952h0a5.658,5.658,0,0,1,7.952.882l9.424,10.326" transform="translate(-274.415 -876.107)"/><circle class="d" cx="7.459" cy="7.459" r="7.459" transform="translate(640.017 187)"/><circle class="d" cx="7.459" cy="7.459" r="7.459" transform="translate(669.698 187)"/><circle class="d" cx="7.459" cy="7.459" r="7.459" transform="translate(640 213.673)"/><circle class="d" cx="7.459" cy="7.459" r="7.459" transform="translate(699.085 213.673)"/><path class="c" d="M949.914,1131.13a7.461,7.461,0,0,1,0-14.616" transform="translate(-274.415 -876.107)"/><circle class="d" cx="7.459" cy="7.459" r="7.459" transform="translate(640 240.314)"/><path class="c" d="M948.7,1104.247a7.461,7.461,0,1,1,9.687-9.18" transform="translate(-274.415 -876.107)"/><circle class="d" cx="7.459" cy="7.459" r="7.459" transform="translate(699.065 187)"/></g><rect class="e" width="237" height="178" transform="translate(565 152)"/></g></svg>